<?xml version="1.0" standalone="no"?>
<svg viewBox="0 0 200 200" xmlns="http://www.w3.org/2000/svg">
  <path fill="#24A148" d="M32.8,-41.7C42,-38.5,48.5,-28.2,56.6,-15.5C64.6,-2.8,74.2,12.2,71.4,23.8C68.5,35.4,53.1,43.6,39.1,47.5C25.1,51.3,12.6,50.8,-3.5,55.6C-19.5,60.4,-39,70.4,-48.4,65.1C-57.9,59.8,-57.3,39.1,-62.8,20.7C-68.3,2.4,-79.9,-13.7,-78.2,-27.4C-76.5,-41.1,-61.4,-52.4,-46.2,-53.7C-30.9,-54.9,-15.5,-45.9,-1.8,-43.5C11.8,-41,23.7,-44.9,32.8,-41.7Z" transform="translate(100 100)" />
</svg>
