<svg id="visual" viewBox="0 0 900 450" width="900" height="450" xmlns="http://www.w3.org/2000/svg" xmlns:xlink="http://www.w3.org/1999/xlink" version="1.1"><rect x="0" y="0" width="900" height="450" fill="#e5e7eb"></rect><path d="M0 378L21.5 373.7C43 369.3 86 360.7 128.8 360.2C171.7 359.7 214.3 367.3 257.2 370.7C300 374 343 373 385.8 362C428.7 351 471.3 330 514.2 323.3C557 316.7 600 324.3 642.8 334C685.7 343.7 728.3 355.3 771.2 347.7C814 340 857 313 878.5 299.5L900 286L900 451L878.5 451C857 451 814 451 771.2 451C728.3 451 685.7 451 642.8 451C600 451 557 451 514.2 451C471.3 451 428.7 451 385.8 451C343 451 300 451 257.2 451C214.3 451 171.7 451 128.8 451C86 451 43 451 21.5 451L0 451Z" fill="#0ea5e9" stroke-linecap="round" stroke-linejoin="miter"></path></svg>