<svg xmlns="http://www.w3.org/2000/svg" version="1.1" xmlns:xlink="http://www.w3.org/1999/xlink" xmlns:svgjs="http://svgjs.dev/svgjs" width="1440" height="560" preserveAspectRatio="none" viewBox="0 0 1440 560"><g mask="url(&quot;#SvgjsMask1002&quot;)" fill="none"><path d="M534.09 602.04C676.68 529.14 598.75 67.68 874.87 59.64 1150.98 51.6 1383.27 182.35 1556.42 182.84" stroke="rgba(230, 240, 251, 1)" stroke-width="2"></path><path d="M814.67 607.15C931.05 594.03 967.09 361.19 1197.52 337.15 1427.95 313.11 1466.31 96.12 1580.37 85.15" stroke="rgba(230, 240, 251, 1)" stroke-width="2"></path><path d="M575.26 615.23C686.61 600.96 643.56 355.05 935.05 346.58 1226.55 338.11 1469.59 174.2 1654.64 172.98" stroke="rgba(230, 240, 251, 1)" stroke-width="2"></path><path d="M927.4 574.93C1052.16 549.04 1108 227.09 1298.81 225.91 1489.61 224.73 1567.8 395.3 1670.21 399.51" stroke="rgba(230, 240, 251, 1)" stroke-width="2"></path><path d="M321 595.82C472.88 553.73 511.95 139.91 746.23 130.4 980.5 120.89 958.84 200.4 1171.45 200.4 1384.07 200.4 1488.94 130.63 1596.68 130.4" stroke="rgba(230, 240, 251, 1)" stroke-width="2"></path></g><defs><mask id="SvgjsMask1002"><rect width="1440" height="560" fill="#ffffff"></rect></mask></defs></svg>